<svg viewBox="0 0 276 114" stroke="#eee" fill="none" xmlns="http://www.w3.org/2000/svg">
    <path fill="#eee" d="M23 43C8.55394 43.6629 1 25 1 25V13C1 13 8.74976 41.15 22 38.5C39.5 35 47.5 1 47.5 1V103.5L41 112V25C41 25 37.0183 42.3567 23 43Z" />
    <path fill="#eee" d="M1 81V25M1 25C1 25 8.55394 43.6629 23 43C37.0183 42.3567 41 25 41 25V112L47.5 103.5V1C47.5 1 39.5 35 22 38.5C8.74976 41.15 1 13 1 13V25Z" />
    <circle fill="#eee" cx="62" cy="57" r="5" />
    <path fill="#eee" d="M81.592 18.144H90.712L79.096 84H69.976L81.592 18.144ZM103.895 33.504H110.327L109.943 41.088H110.519C113.847 35.264 118.327 32.352 123.959 32.352C125.687 32.352 127.159 32.608 128.375 33.12L126.935 41.28H123.383C119.799 41.28 116.631 42.4 113.879 44.64C111.127 46.88 109.335 50.368 108.503 55.104L103.415 84H94.9668L103.895 33.504ZM138.648 85.056C135.448 85.056 133.144 84.32 131.736 82.848C130.328 81.376 129.624 79.456 129.624 77.088C129.624 76.064 129.912 73.984 130.488 70.848L135.768 40.512H129.624L130.872 33.504H137.016L141.432 19.488H147.96L145.464 33.504H154.008L152.76 40.512H144.216L138.359 73.632C138.296 73.952 138.264 74.368 138.264 74.88C138.264 77.056 139.32 78.144 141.432 78.144H146.136L145.176 83.712C144.344 84.096 143.288 84.416 142.008 84.672C140.792 84.928 139.672 85.056 138.648 85.056ZM165.846 14.592H174.198L172.566 23.712H164.214L165.846 14.592ZM162.582 33.504H171.03L162.102 84H153.654L162.582 33.504ZM171.959 79.488L207.192 40.512H180.792L182.04 33.504H221.688L220.92 37.92L185.496 76.992H215.64L214.392 84H171.191L171.959 79.488ZM239.544 85.152C234.616 85.152 230.744 83.616 227.928 80.544C225.112 77.408 223.704 72.832 223.704 66.816C223.704 59.968 224.76 53.952 226.872 48.768C228.984 43.52 231.864 39.488 235.512 36.672C239.224 33.792 243.352 32.352 247.896 32.352C251.416 32.352 254.264 32.896 256.44 33.984C258.616 35.072 260.312 36.832 261.528 39.264H262.104L265.08 33.504H271.512L269.112 46.272C265.656 65.024 263.928 74.784 263.928 75.552C263.928 77.28 264.888 78.144 266.808 78.144H270.648L269.688 83.616C269.048 84 268.152 84.352 267 84.672C265.912 84.992 264.696 85.152 263.352 85.152C258.68 85.152 256.344 82.752 256.344 77.952C256.344 77.12 256.376 76.48 256.44 76.032H255.96C254.232 78.976 251.896 81.248 248.952 82.848C246.008 84.384 242.872 85.152 239.544 85.152ZM241.656 78.144C245.688 78.144 249.016 76.704 251.64 73.824C254.328 70.944 256.28 67.456 257.496 63.36C258.712 59.2 259.32 55.168 259.32 51.264C259.32 47.296 258.488 44.32 256.824 42.336C255.224 40.352 252.632 39.36 249.048 39.36C245.528 39.36 242.52 40.576 240.024 43.008C237.528 45.44 235.64 48.704 234.359 52.8C233.144 56.896 232.536 61.408 232.536 66.336C232.536 74.208 235.576 78.144 241.656 78.144Z" />
</svg>